<svg version="1.1" id="Layer_1" xmlns="http://www.w3.org/2000/svg" xmlns:xlink="http://www.w3.org/1999/xlink" x="0px" y="0px"
	 width="100%" viewBox="0 0 500 500" enable-background="new 0 0 500 500" xml:space="preserve">
<path fill="#010101" opacity="1.000000" stroke="none" 
	d="
M266.000000,501.000000 
	C177.333359,501.000000 89.166710,501.000000 1.000047,501.000000 
	C1.000031,334.333405 1.000031,167.666794 1.000016,1.000137 
	C167.666565,1.000091 334.333130,1.000091 500.999756,1.000046 
	C500.999847,167.666519 500.999847,334.333038 500.999939,500.999786 
	C422.833344,501.000000 344.666656,501.000000 266.000000,501.000000 
M275.271881,409.496552 
	C275.271881,401.733185 275.271881,393.969818 275.271881,386.341248 
	C279.763794,386.341248 283.513947,386.341248 287.532196,386.341248 
	C287.532196,398.331268 287.529022,409.987732 287.533936,421.644196 
	C287.535614,425.647614 289.084869,428.519623 293.425171,428.876068 
	C297.173431,429.183899 299.709991,426.301239 299.844208,421.622101 
	C299.968353,417.292419 299.872009,412.956421 299.872192,408.623199 
	C299.872467,401.194061 299.872253,393.764954 299.872253,386.347046 
	C304.309723,386.347046 308.041107,386.347046 311.620819,386.347046 
	C311.825775,386.835907 311.940643,386.982544 311.941315,387.129669 
	C311.993713,398.625916 312.074402,410.122192 312.061279,421.618408 
	C312.056641,425.697357 313.615082,428.465912 317.899933,428.861725 
	C321.691559,429.212006 324.118927,426.353210 324.228516,421.597168 
	C324.316833,417.765961 324.248840,413.931091 324.249054,410.097870 
	C324.249512,402.156708 324.249207,394.215546 324.249207,386.310669 
	C328.684753,386.310669 332.441162,386.310669 336.496460,386.310669 
	C336.496460,388.267395 336.496368,389.919678 336.496490,391.571960 
	C336.497314,401.571716 336.502747,411.571472 336.496704,421.571228 
	C336.494293,425.564331 337.972412,428.468567 342.312744,428.880219 
	C346.024139,429.232208 348.645630,426.384827 348.795898,421.655457 
	C348.975800,415.994507 348.848602,410.323761 348.850800,404.657257 
	C348.853180,398.558990 348.851349,392.460724 348.851349,386.337097 
	C353.264648,386.337097 356.995239,386.337097 360.871826,386.337097 
	C360.949249,387.467682 361.052185,388.277954 361.053040,389.088379 
	C361.064514,399.921448 361.098145,410.754700 361.043671,421.587494 
	C361.023224,425.652557 362.542938,428.457306 366.836517,428.875244 
	C370.587494,429.240417 373.050110,426.351746 373.208374,421.624725 
	C373.303131,418.794586 373.230988,415.958771 373.231232,413.125519 
	C373.231995,404.176758 373.231506,395.228027 373.231506,386.351532 
	C383.496613,385.421844 383.496613,385.421844 386.311462,373.998718 
	C397.881744,373.998718 409.532196,374.029510 421.182343,373.982025 
	C425.263702,373.965393 428.014709,372.100861 427.969452,367.735535 
	C427.923798,363.329102 425.207672,361.760071 421.022217,361.839355 
	C414.524689,361.962433 408.023163,361.870789 401.523315,361.870483 
	C396.272919,361.870209 391.022522,361.870422 385.879639,361.870422 
	C385.879639,357.369080 385.879639,353.647644 385.879639,349.667297 
	C397.733978,349.667297 409.216553,349.756714 420.696411,349.618683 
	C424.704712,349.570496 427.975281,348.080414 428.006317,343.252899 
	C428.031555,339.325226 425.546570,337.308502 420.482880,337.278412 
	C410.650116,337.220001 400.816803,337.261688 390.983704,337.261871 
	C389.237762,337.261932 387.491791,337.261902 385.724854,337.261902 
	C385.724854,332.824860 385.724854,329.200348 385.724854,325.027924 
	C387.563690,325.027924 389.185150,325.028046 390.806580,325.027893 
	C400.806335,325.027039 410.815948,325.263947 420.798462,324.848633 
	C423.131775,324.751587 426.352295,322.994476 427.455017,321.037720 
	C429.827118,316.828339 426.472168,312.932770 420.918610,312.905731 
	C409.286682,312.849121 397.654297,312.888580 385.766357,312.888580 
	C385.766357,308.692505 385.766357,304.955353 385.766357,300.698090 
	C387.538544,300.698090 389.159637,300.698090 390.780731,300.698090 
	C400.447144,300.698090 410.113770,300.734650 419.779938,300.684174 
	C425.438599,300.654602 428.076935,298.533325 428.013428,294.273956 
	C427.952301,290.174469 425.513153,288.314117 419.963867,288.293884 
	C410.297577,288.258575 400.631042,288.285126 390.964630,288.285736 
	C389.218750,288.285858 387.472870,288.285736 385.724518,288.285736 
	C385.724518,283.842102 385.724518,280.215851 385.724518,276.043610 
	C387.563446,276.043610 389.185272,276.043579 390.807068,276.043640 
	C400.806824,276.043976 410.806793,276.086456 420.806183,276.026703 
	C425.695221,275.997498 428.169617,273.815948 428.002319,269.772552 
	C427.817200,265.297394 425.029877,263.869751 420.956390,263.890076 
	C411.290222,263.938324 401.623627,263.905365 391.957214,263.905304 
	C389.887024,263.905273 387.816864,263.905273 385.687683,263.905273 
	C385.687683,259.496429 385.687683,255.878098 385.687683,251.717972 
	C387.484711,251.717972 389.102936,251.717957 390.721130,251.717987 
	C400.220886,251.718094 409.720673,251.726959 419.220428,251.715195 
	C425.359772,251.707581 428.060944,249.762665 428.022400,245.424927 
	C427.984222,241.130051 425.380493,239.333771 419.037415,239.313492 
	C411.204376,239.288467 403.371155,239.307434 395.538025,239.307404 
	C392.276031,239.307388 389.014069,239.307388 385.904297,239.307388 
	C385.904297,234.817551 385.904297,231.087906 385.904297,227.059921 
	C397.611633,227.059921 408.922119,227.077850 420.232544,227.052094 
	C425.595062,227.039871 428.077850,225.037048 428.017975,220.898254 
	C427.958801,216.803360 425.511383,214.945068 420.015137,214.924164 
	C412.515442,214.895630 405.015564,214.916702 397.515747,214.916565 
	C393.595215,214.916489 389.674713,214.916550 385.868561,214.916550 
	C385.868561,210.460739 385.868561,206.730469 385.868561,202.731491 
	C397.544128,202.731491 408.856995,202.758011 420.169617,202.719803 
	C425.466034,202.701920 428.097137,200.601044 428.007385,196.501938 
	C427.900574,191.624802 424.547119,190.415695 420.541504,190.367325 
	C412.209564,190.266708 403.875641,190.334244 395.542511,190.333008 
	C392.282410,190.332520 389.022278,190.332932 385.910950,190.332932 
	C385.910950,185.837265 385.910950,182.110016 385.910950,178.081116 
	C397.624908,178.081116 408.934906,178.095505 420.244812,178.074814 
	C425.585205,178.065033 428.183533,176.047531 427.999908,171.954239 
	C427.784637,167.155487 424.568268,165.939941 420.452393,165.939789 
	C411.285950,165.939438 402.119507,165.938446 392.953064,165.937790 
	C390.547821,165.937622 388.142578,165.937759 385.696777,165.937759 
	C385.696777,161.531174 385.696777,157.912079 385.696777,153.755386 
	C387.503357,153.755386 389.121979,153.755463 390.740570,153.755386 
	C400.906982,153.754868 411.084351,154.004257 421.231323,153.559753 
	C423.476227,153.461411 426.654663,151.342758 427.481995,149.354813 
	C428.185516,147.664413 426.566162,144.470734 425.107635,142.628510 
	C424.298401,141.606354 421.714142,141.784592 419.927917,141.774155 
	C408.633148,141.708084 397.337830,141.740646 385.383087,141.740646 
	C387.059753,131.904617 382.793549,127.801826 373.231506,129.360489 
	C373.231506,125.465607 373.232025,122.319359 373.231415,119.173119 
	C373.229736,110.673340 373.237366,102.173538 373.221222,93.673782 
	C373.213501,89.600143 371.429382,86.713600 367.144531,86.665764 
	C362.858948,86.617905 360.973785,89.351860 361.056488,93.530830 
	C361.089447,95.196793 361.060059,96.863968 361.060028,98.530594 
	C361.059845,108.649193 361.059937,118.767784 361.059937,129.067322 
	C356.789093,129.067322 353.060333,129.067322 348.851135,129.067322 
	C348.851135,127.151176 348.851135,125.527679 348.851105,123.904175 
	C348.850952,114.237747 348.897888,104.571007 348.832367,94.905022 
	C348.794861,89.364952 346.455750,86.424416 342.435455,86.545044 
	C338.554260,86.661499 336.539398,89.417900 336.501312,94.748306 
	C336.471558,98.914650 336.496124,103.081390 336.496216,107.247955 
	C336.496368,114.512817 336.496246,121.777687 336.496246,129.011124 
	C332.070099,129.011124 328.349854,129.011124 324.249207,129.011124 
	C324.249207,120.023209 324.769775,111.341728 324.065277,102.760826 
	C323.599457,97.086784 328.245728,88.693008 318.243866,86.727386 
	C313.320557,85.759819 312.078003,89.293793 312.078094,102.437592 
	C312.078156,109.937408 312.093994,117.437279 312.064911,124.936981 
	C312.059418,126.350098 311.875305,127.762512 311.778625,129.105530 
	C307.636627,129.105530 304.025055,129.105530 299.872131,129.105530 
	C299.872131,118.070229 299.875793,107.286812 299.870850,96.503403 
	C299.867645,89.485603 297.978485,86.485603 293.603638,86.519485 
	C289.314911,86.552704 287.529785,89.519936 287.529419,96.619980 
	C287.528839,107.395287 287.529266,118.170593 287.529266,129.074036 
	C283.193298,129.074036 279.463867,129.074036 275.524567,129.074036 
	C275.425842,127.831451 275.283234,126.861618 275.281738,125.891571 
	C275.265137,115.058533 275.280823,104.225449 275.264252,93.392410 
	C275.257874,89.236061 273.291260,86.563477 269.004669,86.654327 
	C265.017700,86.738823 263.109497,89.287430 263.102325,93.241028 
	C263.096588,96.407608 263.098511,99.574196 263.098358,102.740784 
	C263.097931,111.515053 263.098206,120.289322 263.098206,128.994629 
	C258.704895,128.994629 254.972366,128.994629 250.891693,128.994629 
	C250.891693,117.321815 250.918579,106.017105 250.879868,94.712608 
	C250.861664,89.395882 248.780365,86.648285 244.875687,86.545799 
	C240.836105,86.439781 238.591080,89.363258 238.562286,94.908791 
	C238.525940,101.908424 238.553528,108.908394 238.553528,115.908218 
	C238.553513,120.323059 238.553497,124.737900 238.553497,129.163025 
	C234.113022,129.163025 230.490005,129.163025 226.291443,129.163025 
	C226.291443,127.341904 226.291534,125.720757 226.291428,124.099617 
	C226.290695,113.766541 226.297455,103.433464 226.285355,93.100403 
	C226.280685,89.113747 224.281937,86.636467 220.293198,86.642517 
	C216.361847,86.648476 214.260193,89.063499 214.129456,93.033203 
	C214.074631,94.698074 214.114716,96.366127 214.114624,98.032738 
	C214.114044,108.319534 214.114319,118.606323 214.114319,129.069504 
	C209.858871,129.069504 206.131592,129.069504 202.149567,129.069504 
	C202.054855,128.002258 201.923645,127.205803 201.922592,126.409172 
	C201.908081,115.409470 201.923325,104.409721 201.904068,93.410027 
	C201.897308,89.541534 200.160599,86.818954 196.125046,86.657333 
	C191.866806,86.486801 189.762192,89.130356 189.616074,93.227219 
	C189.479523,97.055679 189.579056,100.892632 189.578384,104.725845 
	C189.576950,112.824234 189.577942,120.922615 189.577942,129.015869 
	C185.159134,129.015869 181.439499,129.015869 177.311920,129.015869 
	C177.311920,117.199532 177.238556,105.728371 177.350082,94.259003 
	C177.391403,90.009476 176.135727,86.954674 171.478943,86.606522 
	C167.622009,86.318184 165.189117,89.398857 165.149780,94.435287 
	C165.092514,101.767998 165.134308,109.101471 165.134018,116.434624 
	C165.133850,120.683517 165.133987,124.932404 165.133987,129.102722 
	C160.709732,129.102722 157.096176,129.102722 152.932144,129.102722 
	C152.932144,127.240547 152.932190,125.619049 152.932144,123.997551 
	C152.931854,113.831139 152.932541,103.664726 152.930710,93.498314 
	C152.929962,89.363136 151.047440,86.606743 146.768600,86.629242 
	C142.786438,86.650185 140.886322,89.324348 140.666077,93.159172 
	C140.551544,95.152924 140.612946,97.157356 140.612198,99.156967 
	C140.608459,109.095795 140.610489,119.034622 140.610489,128.882309 
	C130.223541,130.167572 129.207321,127.597336 127.845497,141.741821 
	C126.261238,141.741821 124.623985,141.741745 122.986732,141.741821 
	C112.653664,141.742355 102.320580,141.735565 91.987526,141.747299 
	C88.190918,141.751602 85.878036,143.754684 85.757446,147.449814 
	C85.637207,151.134018 87.921860,153.261887 91.568336,153.702469 
	C93.047577,153.881195 94.564598,153.754059 96.064430,153.754364 
	C106.679726,153.756439 117.295013,153.755463 128.110870,153.755463 
	C128.110870,157.973083 128.110870,161.726639 128.110870,165.939346 
	C116.660332,165.939346 105.370773,165.911911 94.081459,165.951157 
	C88.603508,165.970215 85.540314,168.333374 85.661713,172.279099 
	C85.776649,176.015121 88.679291,178.070282 93.941414,178.076889 
	C105.234207,178.091049 116.527031,178.081223 127.984009,178.081223 
	C127.984009,182.376022 127.984009,186.251343 127.984009,190.332932 
	C124.338860,190.332932 121.025650,190.332550 117.712448,190.333008 
	C109.545990,190.334122 101.378395,190.255417 93.213554,190.371017 
	C89.173363,190.428207 85.895264,191.894501 85.707130,196.601196 
	C85.562630,200.216400 88.677933,202.622055 93.302902,202.722794 
	C95.635056,202.773590 97.969254,202.730225 100.302528,202.730179 
	C109.565407,202.729996 118.828285,202.730103 128.039108,202.730103 
	C128.039108,207.109146 128.039108,210.856888 128.039108,214.916550 
	C126.136063,214.916550 124.494675,214.916489 122.853294,214.916550 
	C113.020203,214.916901 103.186943,214.882965 93.354103,214.932449 
	C88.581047,214.956467 85.724907,217.252029 85.661469,220.909149 
	C85.597015,224.625061 88.430344,226.964172 93.144623,227.055725 
	C94.810616,227.088089 96.477776,227.060242 98.144402,227.060226 
	C108.092506,227.060150 118.040611,227.060165 127.920975,227.060165 
	C127.920975,231.477295 127.920975,235.363220 127.920975,239.306808 
	C116.359535,239.306808 105.194473,239.270096 94.029839,239.322433 
	C88.515526,239.348282 85.493759,241.727600 85.670082,245.682785 
	C85.839264,249.477631 88.792030,251.667969 93.918716,251.710068 
	C98.751602,251.749725 103.585075,251.718185 108.418289,251.718124 
	C115.005707,251.718048 121.593124,251.718109 127.994888,251.718109 
	C127.994888,256.170685 127.994888,259.917542 127.994888,263.905212 
	C126.541245,263.905212 125.393738,263.905151 124.246239,263.905212 
	C113.579842,263.905701 102.913368,263.884766 92.247078,263.917725 
	C88.285118,263.929993 85.750069,266.001556 85.755219,269.936615 
	C85.760315,273.825836 88.198059,275.961304 92.196182,276.031128 
	C93.862335,276.060242 95.529327,276.043304 97.195938,276.043427 
	C107.474052,276.044189 117.752167,276.043823 128.073990,276.043823 
	C128.073990,280.368469 128.073990,284.132324 128.073990,288.285400 
	C125.215668,288.285400 122.594353,288.285309 119.973038,288.285400 
	C110.806602,288.285767 101.639580,288.226196 92.474014,288.315399 
	C88.679260,288.352295 85.890671,290.159821 85.754410,294.195251 
	C85.619080,298.203339 88.257080,300.168854 92.018379,300.617279 
	C93.663094,300.813354 95.346924,300.695251 97.013000,300.695984 
	C107.299950,300.700531 117.586899,300.698242 127.947327,300.698242 
	C127.947327,304.985382 127.947327,308.838196 127.947327,312.889252 
	C115.930359,312.889252 104.282539,312.923798 92.635132,312.870056 
	C88.680031,312.851807 86.199600,314.618042 85.715302,318.530640 
	C85.276970,322.071869 88.164375,324.886810 92.375015,324.970428 
	C99.705315,325.116058 107.040382,325.023285 114.373451,325.027649 
	C118.964531,325.030396 123.555618,325.028137 127.999191,325.028137 
	C127.999191,329.486816 127.999191,333.248962 127.999191,337.261719 
	C126.543831,337.261719 125.405144,337.261627 124.266457,337.261719 
	C113.600060,337.262604 102.933556,337.236664 92.267326,337.279327 
	C88.595779,337.294006 86.086456,339.160675 85.768959,342.837036 
	C85.448639,346.546082 87.690926,348.755768 91.277710,349.375793 
	C93.064377,349.684601 94.921249,349.656281 96.746635,349.660461 
	C107.177872,349.684296 117.609192,349.672058 128.047836,349.672058 
	C128.047836,354.023834 128.047836,357.771179 128.047836,361.873199 
	C115.981827,361.873199 104.182602,361.910126 92.383827,361.852936 
	C88.333344,361.833313 85.849091,363.810852 85.776299,367.699249 
	C85.703514,371.587311 88.234322,373.721588 92.150871,373.946320 
	C93.978783,374.051208 95.815926,374.008636 97.648895,374.009491 
	C107.781425,374.014221 117.913956,374.011749 127.999474,374.011749 
	C128.920547,384.320312 128.920547,384.320312 140.610550,386.676331 
	C140.610550,389.756287 140.610062,392.905426 140.610641,396.054565 
	C140.612167,404.387665 140.540024,412.721710 140.643387,421.053558 
	C140.707062,426.187073 143.146255,429.155670 147.035355,428.874084 
	C151.733353,428.533936 152.990417,425.326385 152.939041,421.186493 
	C152.897675,417.853760 152.932190,414.520081 152.932297,411.186829 
	C152.932556,402.918701 152.932373,394.650543 152.932373,386.323792 
	C157.330017,386.323792 161.062988,386.323792 165.133987,386.323792 
	C165.133987,388.946381 165.133560,391.253265 165.134064,393.560120 
	C165.136108,402.893219 165.074646,412.226929 165.167572,421.559113 
	C165.214142,426.236938 167.752045,429.145020 171.505920,428.871796 
	C175.866425,428.554443 177.413010,425.746124 177.322037,421.675201 
	C177.262466,419.009949 177.311447,416.342224 177.311462,413.675629 
	C177.311554,404.561890 177.311493,395.448151 177.311493,386.276306 
	C181.700531,386.276306 185.457764,386.276306 189.577942,386.276306 
	C189.577942,394.187103 189.571014,401.831848 189.580566,409.476562 
	C189.586197,413.975739 189.380325,418.492676 189.713989,422.968445 
	C189.976410,426.488678 192.042664,428.930634 195.877945,428.865417 
	C199.691330,428.800568 201.515213,426.382294 201.868576,422.795563 
	C202.031265,421.144440 201.911118,419.465027 201.911346,417.798431 
	C201.912827,407.354401 201.912094,396.910370 201.912094,386.282837 
	C206.219940,386.282837 209.952408,386.282837 214.114517,386.282837 
	C214.114517,388.184052 214.114426,389.811890 214.114532,391.439697 
	C214.115204,401.606110 214.085159,411.772675 214.131790,421.938873 
	C214.150421,426.001007 216.021713,428.833099 220.314651,428.831177 
	C224.695435,428.829193 226.317566,425.900055 226.291306,421.832916 
	C226.280548,420.166351 226.291473,418.499664 226.291504,416.833038 
	C226.291718,406.710236 226.291641,396.587402 226.291641,386.239624 
	C230.560211,386.239624 234.303375,386.239624 238.552261,386.239624 
	C238.552261,397.900696 238.520523,409.354431 238.566452,420.807831 
	C238.587540,426.068207 240.751495,428.851929 244.652084,428.914398 
	C248.547943,428.976776 250.845901,426.144226 250.875366,420.962555 
	C250.931259,411.129761 250.891922,401.296478 250.892136,391.463379 
	C250.892181,389.720947 250.892151,387.978485 250.892151,386.396484 
	C255.445435,386.396484 259.178955,386.396484 263.100922,386.396484 
	C263.100922,398.446991 263.110199,410.106934 263.095856,421.766876 
	C263.090851,425.846069 264.781769,428.725525 269.081360,428.827820 
	C273.434845,428.931305 275.211365,426.063873 275.260010,421.993561 
	C275.305786,418.160858 275.271149,414.327209 275.271881,409.496552 
z"/>
<path fill="#FBFBFB" opacity="1.000000" stroke="none" 
	d="
M275.271881,409.995239 
	C275.271149,414.327209 275.305786,418.160858 275.260010,421.993561 
	C275.211365,426.063873 273.434845,428.931305 269.081360,428.827820 
	C264.781769,428.725525 263.090851,425.846069 263.095856,421.766876 
	C263.110199,410.106934 263.100922,398.446991 263.100922,386.396484 
	C259.178955,386.396484 255.445435,386.396484 250.892151,386.396484 
	C250.892151,387.978485 250.892181,389.720947 250.892136,391.463379 
	C250.891922,401.296478 250.931259,411.129761 250.875366,420.962555 
	C250.845901,426.144226 248.547943,428.976776 244.652084,428.914398 
	C240.751495,428.851929 238.587540,426.068207 238.566452,420.807831 
	C238.520523,409.354431 238.552261,397.900696 238.552261,386.239624 
	C234.303375,386.239624 230.560211,386.239624 226.291641,386.239624 
	C226.291641,396.587402 226.291718,406.710236 226.291504,416.833038 
	C226.291473,418.499664 226.280548,420.166351 226.291306,421.832916 
	C226.317566,425.900055 224.695435,428.829193 220.314651,428.831177 
	C216.021713,428.833099 214.150421,426.001007 214.131790,421.938873 
	C214.085159,411.772675 214.115204,401.606110 214.114532,391.439697 
	C214.114426,389.811890 214.114517,388.184052 214.114517,386.282837 
	C209.952408,386.282837 206.219940,386.282837 201.912094,386.282837 
	C201.912094,396.910370 201.912827,407.354401 201.911346,417.798431 
	C201.911118,419.465027 202.031265,421.144440 201.868576,422.795563 
	C201.515213,426.382294 199.691330,428.800568 195.877945,428.865417 
	C192.042664,428.930634 189.976410,426.488678 189.713989,422.968445 
	C189.380325,418.492676 189.586197,413.975739 189.580566,409.476562 
	C189.571014,401.831848 189.577942,394.187103 189.577942,386.276306 
	C185.457764,386.276306 181.700531,386.276306 177.311493,386.276306 
	C177.311493,395.448151 177.311554,404.561890 177.311462,413.675629 
	C177.311447,416.342224 177.262466,419.009949 177.322037,421.675201 
	C177.413010,425.746124 175.866425,428.554443 171.505920,428.871796 
	C167.752045,429.145020 165.214142,426.236938 165.167572,421.559113 
	C165.074646,412.226929 165.136108,402.893219 165.134064,393.560120 
	C165.133560,391.253265 165.133987,388.946381 165.133987,386.323792 
	C161.062988,386.323792 157.330017,386.323792 152.932373,386.323792 
	C152.932373,394.650543 152.932556,402.918701 152.932297,411.186829 
	C152.932190,414.520081 152.897675,417.853760 152.939041,421.186493 
	C152.990417,425.326385 151.733353,428.533936 147.035355,428.874084 
	C143.146255,429.155670 140.707062,426.187073 140.643387,421.053558 
	C140.540024,412.721710 140.612167,404.387665 140.610641,396.054565 
	C140.610062,392.905426 140.610550,389.756287 140.610550,386.676331 
	C128.920547,384.320312 128.920547,384.320312 127.999474,374.011749 
	C117.913956,374.011749 107.781425,374.014221 97.648895,374.009491 
	C95.815926,374.008636 93.978783,374.051208 92.150871,373.946320 
	C88.234322,373.721588 85.703514,371.587311 85.776299,367.699249 
	C85.849091,363.810852 88.333344,361.833313 92.383827,361.852936 
	C104.182602,361.910126 115.981827,361.873199 128.047836,361.873199 
	C128.047836,357.771179 128.047836,354.023834 128.047836,349.672058 
	C117.609192,349.672058 107.177872,349.684296 96.746635,349.660461 
	C94.921249,349.656281 93.064377,349.684601 91.277710,349.375793 
	C87.690926,348.755768 85.448639,346.546082 85.768959,342.837036 
	C86.086456,339.160675 88.595779,337.294006 92.267326,337.279327 
	C102.933556,337.236664 113.600060,337.262604 124.266457,337.261719 
	C125.405144,337.261627 126.543831,337.261719 127.999191,337.261719 
	C127.999191,333.248962 127.999191,329.486816 127.999191,325.028137 
	C123.555618,325.028137 118.964531,325.030396 114.373451,325.027649 
	C107.040382,325.023285 99.705315,325.116058 92.375015,324.970428 
	C88.164375,324.886810 85.276970,322.071869 85.715302,318.530640 
	C86.199600,314.618042 88.680031,312.851807 92.635132,312.870056 
	C104.282539,312.923798 115.930359,312.889252 127.947327,312.889252 
	C127.947327,308.838196 127.947327,304.985382 127.947327,300.698242 
	C117.586899,300.698242 107.299950,300.700531 97.013000,300.695984 
	C95.346924,300.695251 93.663094,300.813354 92.018379,300.617279 
	C88.257080,300.168854 85.619080,298.203339 85.754410,294.195251 
	C85.890671,290.159821 88.679260,288.352295 92.474014,288.315399 
	C101.639580,288.226196 110.806602,288.285767 119.973038,288.285400 
	C122.594353,288.285309 125.215668,288.285400 128.073990,288.285400 
	C128.073990,284.132324 128.073990,280.368469 128.073990,276.043823 
	C117.752167,276.043823 107.474052,276.044189 97.195938,276.043427 
	C95.529327,276.043304 93.862335,276.060242 92.196182,276.031128 
	C88.198059,275.961304 85.760315,273.825836 85.755219,269.936615 
	C85.750069,266.001556 88.285118,263.929993 92.247078,263.917725 
	C102.913368,263.884766 113.579842,263.905701 124.246239,263.905212 
	C125.393738,263.905151 126.541245,263.905212 127.994888,263.905212 
	C127.994888,259.917542 127.994888,256.170685 127.994888,251.718109 
	C121.593124,251.718109 115.005707,251.718048 108.418289,251.718124 
	C103.585075,251.718185 98.751602,251.749725 93.918716,251.710068 
	C88.792030,251.667969 85.839264,249.477631 85.670082,245.682785 
	C85.493759,241.727600 88.515526,239.348282 94.029839,239.322433 
	C105.194473,239.270096 116.359535,239.306808 127.920975,239.306808 
	C127.920975,235.363220 127.920975,231.477295 127.920975,227.060165 
	C118.040611,227.060165 108.092506,227.060150 98.144402,227.060226 
	C96.477776,227.060242 94.810616,227.088089 93.144623,227.055725 
	C88.430344,226.964172 85.597015,224.625061 85.661469,220.909149 
	C85.724907,217.252029 88.581047,214.956467 93.354103,214.932449 
	C103.186943,214.882965 113.020203,214.916901 122.853294,214.916550 
	C124.494675,214.916489 126.136063,214.916550 128.039108,214.916550 
	C128.039108,210.856888 128.039108,207.109146 128.039108,202.730103 
	C118.828285,202.730103 109.565407,202.729996 100.302528,202.730179 
	C97.969254,202.730225 95.635056,202.773590 93.302902,202.722794 
	C88.677933,202.622055 85.562630,200.216400 85.707130,196.601196 
	C85.895264,191.894501 89.173363,190.428207 93.213554,190.371017 
	C101.378395,190.255417 109.545990,190.334122 117.712448,190.333008 
	C121.025650,190.332550 124.338860,190.332932 127.984009,190.332932 
	C127.984009,186.251343 127.984009,182.376022 127.984009,178.081223 
	C116.527031,178.081223 105.234207,178.091049 93.941414,178.076889 
	C88.679291,178.070282 85.776649,176.015121 85.661713,172.279099 
	C85.540314,168.333374 88.603508,165.970215 94.081459,165.951157 
	C105.370773,165.911911 116.660332,165.939346 128.110870,165.939346 
	C128.110870,161.726639 128.110870,157.973083 128.110870,153.755463 
	C117.295013,153.755463 106.679726,153.756439 96.064430,153.754364 
	C94.564598,153.754059 93.047577,153.881195 91.568336,153.702469 
	C87.921860,153.261887 85.637207,151.134018 85.757446,147.449814 
	C85.878036,143.754684 88.190918,141.751602 91.987526,141.747299 
	C102.320580,141.735565 112.653664,141.742355 122.986732,141.741821 
	C124.623985,141.741745 126.261238,141.741821 127.845497,141.741821 
	C129.207321,127.597336 130.223541,130.167572 140.610489,128.882309 
	C140.610489,119.034622 140.608459,109.095795 140.612198,99.156967 
	C140.612946,97.157356 140.551544,95.152924 140.666077,93.159172 
	C140.886322,89.324348 142.786438,86.650185 146.768600,86.629242 
	C151.047440,86.606743 152.929962,89.363136 152.930710,93.498314 
	C152.932541,103.664726 152.931854,113.831139 152.932144,123.997551 
	C152.932190,125.619049 152.932144,127.240547 152.932144,129.102722 
	C157.096176,129.102722 160.709732,129.102722 165.133987,129.102722 
	C165.133987,124.932404 165.133850,120.683517 165.134018,116.434624 
	C165.134308,109.101471 165.092514,101.767998 165.149780,94.435287 
	C165.189117,89.398857 167.622009,86.318184 171.478943,86.606522 
	C176.135727,86.954674 177.391403,90.009476 177.350082,94.259003 
	C177.238556,105.728371 177.311920,117.199532 177.311920,129.015869 
	C181.439499,129.015869 185.159134,129.015869 189.577942,129.015869 
	C189.577942,120.922615 189.576950,112.824234 189.578384,104.725845 
	C189.579056,100.892632 189.479523,97.055679 189.616074,93.227219 
	C189.762192,89.130356 191.866806,86.486801 196.125046,86.657333 
	C200.160599,86.818954 201.897308,89.541534 201.904068,93.410027 
	C201.923325,104.409721 201.908081,115.409470 201.922592,126.409172 
	C201.923645,127.205803 202.054855,128.002258 202.149567,129.069504 
	C206.131592,129.069504 209.858871,129.069504 214.114319,129.069504 
	C214.114319,118.606323 214.114044,108.319534 214.114624,98.032738 
	C214.114716,96.366127 214.074631,94.698074 214.129456,93.033203 
	C214.260193,89.063499 216.361847,86.648476 220.293198,86.642517 
	C224.281937,86.636467 226.280685,89.113747 226.285355,93.100403 
	C226.297455,103.433464 226.290695,113.766541 226.291428,124.099617 
	C226.291534,125.720757 226.291443,127.341904 226.291443,129.163025 
	C230.490005,129.163025 234.113022,129.163025 238.553497,129.163025 
	C238.553497,124.737900 238.553513,120.323059 238.553528,115.908218 
	C238.553528,108.908394 238.525940,101.908424 238.562286,94.908791 
	C238.591080,89.363258 240.836105,86.439781 244.875687,86.545799 
	C248.780365,86.648285 250.861664,89.395882 250.879868,94.712608 
	C250.918579,106.017105 250.891693,117.321815 250.891693,128.994629 
	C254.972366,128.994629 258.704895,128.994629 263.098206,128.994629 
	C263.098206,120.289322 263.097931,111.515053 263.098358,102.740784 
	C263.098511,99.574196 263.096588,96.407608 263.102325,93.241028 
	C263.109497,89.287430 265.017700,86.738823 269.004669,86.654327 
	C273.291260,86.563477 275.257874,89.236061 275.264252,93.392410 
	C275.280823,104.225449 275.265137,115.058533 275.281738,125.891571 
	C275.283234,126.861618 275.425842,127.831451 275.524567,129.074036 
	C279.463867,129.074036 283.193298,129.074036 287.529266,129.074036 
	C287.529266,118.170593 287.528839,107.395287 287.529419,96.619980 
	C287.529785,89.519936 289.314911,86.552704 293.603638,86.519485 
	C297.978485,86.485603 299.867645,89.485603 299.870850,96.503403 
	C299.875793,107.286812 299.872131,118.070229 299.872131,129.105530 
	C304.025055,129.105530 307.636627,129.105530 311.778625,129.105530 
	C311.875305,127.762512 312.059418,126.350098 312.064911,124.936981 
	C312.093994,117.437279 312.078156,109.937408 312.078094,102.437592 
	C312.078003,89.293793 313.320557,85.759819 318.243866,86.727386 
	C328.245728,88.693008 323.599457,97.086784 324.065277,102.760826 
	C324.769775,111.341728 324.249207,120.023209 324.249207,129.011124 
	C328.349854,129.011124 332.070099,129.011124 336.496246,129.011124 
	C336.496246,121.777687 336.496368,114.512817 336.496216,107.247955 
	C336.496124,103.081390 336.471558,98.914650 336.501312,94.748306 
	C336.539398,89.417900 338.554260,86.661499 342.435455,86.545044 
	C346.455750,86.424416 348.794861,89.364952 348.832367,94.905022 
	C348.897888,104.571007 348.850952,114.237747 348.851105,123.904175 
	C348.851135,125.527679 348.851135,127.151176 348.851135,129.067322 
	C353.060333,129.067322 356.789093,129.067322 361.059937,129.067322 
	C361.059937,118.767784 361.059845,108.649193 361.060028,98.530594 
	C361.060059,96.863968 361.089447,95.196793 361.056488,93.530830 
	C360.973785,89.351860 362.858948,86.617905 367.144531,86.665764 
	C371.429382,86.713600 373.213501,89.600143 373.221222,93.673782 
	C373.237366,102.173538 373.229736,110.673340 373.231415,119.173119 
	C373.232025,122.319359 373.231506,125.465607 373.231506,129.360489 
	C382.793549,127.801826 387.059753,131.904617 385.383087,141.740646 
	C397.337830,141.740646 408.633148,141.708084 419.927917,141.774155 
	C421.714142,141.784592 424.298401,141.606354 425.107635,142.628510 
	C426.566162,144.470734 428.185516,147.664413 427.481995,149.354813 
	C426.654663,151.342758 423.476227,153.461411 421.231323,153.559753 
	C411.084351,154.004257 400.906982,153.754868 390.740570,153.755386 
	C389.121979,153.755463 387.503357,153.755386 385.696777,153.755386 
	C385.696777,157.912079 385.696777,161.531174 385.696777,165.937759 
	C388.142578,165.937759 390.547821,165.937622 392.953064,165.937790 
	C402.119507,165.938446 411.285950,165.939438 420.452393,165.939789 
	C424.568268,165.939941 427.784637,167.155487 427.999908,171.954239 
	C428.183533,176.047531 425.585205,178.065033 420.244812,178.074814 
	C408.934906,178.095505 397.624908,178.081116 385.910950,178.081116 
	C385.910950,182.110016 385.910950,185.837265 385.910950,190.332932 
	C389.022278,190.332932 392.282410,190.332520 395.542511,190.333008 
	C403.875641,190.334244 412.209564,190.266708 420.541504,190.367325 
	C424.547119,190.415695 427.900574,191.624802 428.007385,196.501938 
	C428.097137,200.601044 425.466034,202.701920 420.169617,202.719803 
	C408.856995,202.758011 397.544128,202.731491 385.868561,202.731491 
	C385.868561,206.730469 385.868561,210.460739 385.868561,214.916550 
	C389.674713,214.916550 393.595215,214.916489 397.515747,214.916565 
	C405.015564,214.916702 412.515442,214.895630 420.015137,214.924164 
	C425.511383,214.945068 427.958801,216.803360 428.017975,220.898254 
	C428.077850,225.037048 425.595062,227.039871 420.232544,227.052094 
	C408.922119,227.077850 397.611633,227.059921 385.904297,227.059921 
	C385.904297,231.087906 385.904297,234.817551 385.904297,239.307388 
	C389.014069,239.307388 392.276031,239.307388 395.538025,239.307404 
	C403.371155,239.307434 411.204376,239.288467 419.037415,239.313492 
	C425.380493,239.333771 427.984222,241.130051 428.022400,245.424927 
	C428.060944,249.762665 425.359772,251.707581 419.220428,251.715195 
	C409.720673,251.726959 400.220886,251.718094 390.721130,251.717987 
	C389.102936,251.717957 387.484711,251.717972 385.687683,251.717972 
	C385.687683,255.878098 385.687683,259.496429 385.687683,263.905273 
	C387.816864,263.905273 389.887024,263.905273 391.957214,263.905304 
	C401.623627,263.905365 411.290222,263.938324 420.956390,263.890076 
	C425.029877,263.869751 427.817200,265.297394 428.002319,269.772552 
	C428.169617,273.815948 425.695221,275.997498 420.806183,276.026703 
	C410.806793,276.086456 400.806824,276.043976 390.807068,276.043640 
	C389.185272,276.043579 387.563446,276.043610 385.724518,276.043610 
	C385.724518,280.215851 385.724518,283.842102 385.724518,288.285736 
	C387.472870,288.285736 389.218750,288.285858 390.964630,288.285736 
	C400.631042,288.285126 410.297577,288.258575 419.963867,288.293884 
	C425.513153,288.314117 427.952301,290.174469 428.013428,294.273956 
	C428.076935,298.533325 425.438599,300.654602 419.779938,300.684174 
	C410.113770,300.734650 400.447144,300.698090 390.780731,300.698090 
	C389.159637,300.698090 387.538544,300.698090 385.766357,300.698090 
	C385.766357,304.955353 385.766357,308.692505 385.766357,312.888580 
	C397.654297,312.888580 409.286682,312.849121 420.918610,312.905731 
	C426.472168,312.932770 429.827118,316.828339 427.455017,321.037720 
	C426.352295,322.994476 423.131775,324.751587 420.798462,324.848633 
	C410.815948,325.263947 400.806335,325.027039 390.806580,325.027893 
	C389.185150,325.028046 387.563690,325.027924 385.724854,325.027924 
	C385.724854,329.200348 385.724854,332.824860 385.724854,337.261902 
	C387.491791,337.261902 389.237762,337.261932 390.983704,337.261871 
	C400.816803,337.261688 410.650116,337.220001 420.482880,337.278412 
	C425.546570,337.308502 428.031555,339.325226 428.006317,343.252899 
	C427.975281,348.080414 424.704712,349.570496 420.696411,349.618683 
	C409.216553,349.756714 397.733978,349.667297 385.879639,349.667297 
	C385.879639,353.647644 385.879639,357.369080 385.879639,361.870422 
	C391.022522,361.870422 396.272919,361.870209 401.523315,361.870483 
	C408.023163,361.870789 414.524689,361.962433 421.022217,361.839355 
	C425.207672,361.760071 427.923798,363.329102 427.969452,367.735535 
	C428.014709,372.100861 425.263702,373.965393 421.182343,373.982025 
	C409.532196,374.029510 397.881744,373.998718 386.311462,373.998718 
	C383.496613,385.421844 383.496613,385.421844 373.231506,386.351532 
	C373.231506,395.228027 373.231995,404.176758 373.231232,413.125519 
	C373.230988,415.958771 373.303131,418.794586 373.208374,421.624725 
	C373.050110,426.351746 370.587494,429.240417 366.836517,428.875244 
	C362.542938,428.457306 361.023224,425.652557 361.043671,421.587494 
	C361.098145,410.754700 361.064514,399.921448 361.053040,389.088379 
	C361.052185,388.277954 360.949249,387.467682 360.871826,386.337097 
	C356.995239,386.337097 353.264648,386.337097 348.851349,386.337097 
	C348.851349,392.460724 348.853180,398.558990 348.850800,404.657257 
	C348.848602,410.323761 348.975800,415.994507 348.795898,421.655457 
	C348.645630,426.384827 346.024139,429.232208 342.312744,428.880219 
	C337.972412,428.468567 336.494293,425.564331 336.496704,421.571228 
	C336.502747,411.571472 336.497314,401.571716 336.496490,391.571960 
	C336.496368,389.919678 336.496460,388.267395 336.496460,386.310669 
	C332.441162,386.310669 328.684753,386.310669 324.249207,386.310669 
	C324.249207,394.215546 324.249512,402.156708 324.249054,410.097870 
	C324.248840,413.931091 324.316833,417.765961 324.228516,421.597168 
	C324.118927,426.353210 321.691559,429.212006 317.899933,428.861725 
	C313.615082,428.465912 312.056641,425.697357 312.061279,421.618408 
	C312.074402,410.122192 311.993713,398.625916 311.941315,387.129669 
	C311.940643,386.982544 311.825775,386.835907 311.620819,386.347046 
	C308.041107,386.347046 304.309723,386.347046 299.872253,386.347046 
	C299.872253,393.764954 299.872467,401.194061 299.872192,408.623199 
	C299.872009,412.956421 299.968353,417.292419 299.844208,421.622101 
	C299.709991,426.301239 297.173431,429.183899 293.425171,428.876068 
	C289.084869,428.519623 287.535614,425.647614 287.533936,421.644196 
	C287.529022,409.987732 287.532196,398.331268 287.532196,386.341248 
	C283.513947,386.341248 279.763794,386.341248 275.271881,386.341248 
	C275.271881,393.969818 275.271881,401.733185 275.271881,409.995239 
M165.133301,266.499969 
	C165.133392,287.160767 165.100388,307.821625 165.145325,328.482330 
	C165.174835,342.046661 172.493576,349.605011 186.134277,349.635345 
	C233.287262,349.740173 280.440765,349.742584 327.593719,349.634460 
	C341.557251,349.602448 348.811035,342.152191 348.827759,328.164825 
	C348.883942,281.178284 348.884003,234.191620 348.830078,187.205109 
	C348.813934,173.134262 341.565948,165.955765 327.527466,165.946915 
	C280.540863,165.917252 233.554276,165.920914 186.567673,165.944901 
	C172.271149,165.952194 165.152237,173.140747 165.139648,187.522186 
	C165.116882,213.514755 165.133270,239.507355 165.133301,266.499969 
z"/>
<path fill="#090909" opacity="1.000000" stroke="none" 
	d="
M165.133301,265.999939 
	C165.133270,239.507355 165.116882,213.514755 165.139648,187.522186 
	C165.152237,173.140747 172.271149,165.952194 186.567673,165.944901 
	C233.554276,165.920914 280.540863,165.917252 327.527466,165.946915 
	C341.565948,165.955765 348.813934,173.134262 348.830078,187.205109 
	C348.884003,234.191620 348.883942,281.178284 348.827759,328.164825 
	C348.811035,342.152191 341.557251,349.602448 327.593719,349.634460 
	C280.440765,349.742584 233.287262,349.740173 186.134277,349.635345 
	C172.493576,349.605011 165.174835,342.046661 165.145325,328.482330 
	C165.100388,307.821625 165.133392,287.160767 165.133301,265.999939 
M336.536896,262.500275 
	C336.536896,237.509384 336.550934,212.518478 336.528381,187.527618 
	C336.521545,179.933960 334.666260,178.074661 327.108246,178.072357 
	C280.291992,178.058105 233.475708,178.056091 186.659439,178.074600 
	C179.298752,178.077515 177.298248,180.163803 177.296982,187.680206 
	C177.289139,234.329865 177.289490,280.979523 177.296875,327.629181 
	C177.298111,335.460693 179.112946,337.273987 187.056458,337.276306 
	C233.706131,337.289886 280.355804,337.290802 327.005463,337.275452 
	C334.945251,337.272827 336.527283,335.621399 336.532104,327.476990 
	C336.544708,306.151428 336.536652,284.825867 336.536896,262.500275 
z"/>
<path fill="#F4F4F4" opacity="1.000000" stroke="none" 
	d="
M336.536865,263.000305 
	C336.536652,284.825867 336.544708,306.151428 336.532104,327.476990 
	C336.527283,335.621399 334.945251,337.272827 327.005463,337.275452 
	C280.355804,337.290802 233.706131,337.289886 187.056458,337.276306 
	C179.112946,337.273987 177.298111,335.460693 177.296875,327.629181 
	C177.289490,280.979523 177.289139,234.329865 177.296982,187.680206 
	C177.298248,180.163803 179.298752,178.077515 186.659439,178.074600 
	C233.475708,178.056091 280.291992,178.058105 327.108246,178.072357 
	C334.666260,178.074661 336.521545,179.933960 336.528381,187.527618 
	C336.550934,212.518478 336.536896,237.509384 336.536865,263.000305 
M324.209351,274.500092 
	C324.209351,246.565445 324.209351,218.630814 324.209351,190.731476 
	C279.129517,190.731476 234.598892,190.731476 189.989288,190.731476 
	C189.989288,235.593246 189.989288,280.108093 189.989288,324.697998 
	C234.870453,324.697998 279.406128,324.697998 324.209351,324.697998 
	C324.209351,308.103058 324.209351,291.801575 324.209351,274.500092 
z"/>
<path fill="#010101" opacity="1.000000" stroke="none" 
	d="
M324.209351,275.000122 
	C324.209351,291.801575 324.209351,308.103058 324.209351,324.697998 
	C279.406128,324.697998 234.870453,324.697998 189.989288,324.697998 
	C189.989288,280.108093 189.989288,235.593246 189.989288,190.731476 
	C234.598892,190.731476 279.129517,190.731476 324.209351,190.731476 
	C324.209351,218.630814 324.209351,246.565445 324.209351,275.000122 
z"/>
</svg>